<?xml version="1.0" encoding="UTF-8"?>
<svg xmlns="http://www.w3.org/2000/svg" id="Layer_1" data-name="Layer 1" width="36.17mm" height="63.38mm" viewBox="0 0 102.52 179.65">
  <title>marketing-favicon</title>
  <path d="M-413.29,123.05q-4.29-4.12-11.34-4.12H-448v28.75h22.69q7.4,0,11.86-4.12A13.5,13.5,0,0,0-409,133.22,13.53,13.53,0,0,0-413.29,123.05Z" transform="translate(448 -70.96)" style="fill:#c9f31d;fill-rule:evenodd"></path>
  <path d="M-371.95,96.85C-386.67,82.41-406,72.59-427.83,71v30.53h4.2a41.21,41.21,0,0,1,18.57,4.2,33.69,33.69,0,0,1,13.39,11.43,27.61,27.61,0,0,1,4.87,15.8,27.39,27.39,0,0,1-4.45,15.72,29.25,29.25,0,0,1-11.69,10.17v1.35a31.28,31.28,0,0,1,15,10.67,28.14,28.14,0,0,1,5.55,17.56A30.05,30.05,0,0,1-387.68,206,34.22,34.22,0,0,1-402,217.72a47.24,47.24,0,0,1-19.91,4.12h-5.89V250.6a89.59,89.59,0,0,0,55.88-26.16,89.62,89.62,0,0,0,26.41-63.79A90,90,0,0,0-371.95,96.85Z" transform="translate(448 -70.96)" style="fill:#c9f31d;fill-rule:evenodd"></path>
  <path d="M-409.92,194a14.53,14.53,0,0,0,4.61-11.18,14.66,14.66,0,0,0-4.7-11.27q-4.71-4.36-13.45-4.37H-448v31.1h25.22Q-414.53,198.27-409.92,194Z" transform="translate(448 -70.96)" style="fill:#c9f31d;fill-rule:evenodd"></path>
</svg>
