<?xml version="1.0" encoding="UTF-8"?>
<svg xmlns="http://www.w3.org/2000/svg" id="Layer_1" data-name="Layer 1" width="142.28mm" height="63.46mm" viewBox="0 0 403.3 179.9">
  <title>marketing-logo-white</title>
  <path d="M-301.6,146.07V87.57h30.9c5.9,0,10.3,1.4,13.3,4.2s4.5,6.7,4.5,11.8a15.19,15.19,0,0,1-1.8,7.8,13,13,0,0,1-4.7,4.9,14.25,14.25,0,0,1,6.3,4.3c1.5,1.9,2.3,4.7,2.3,8.4,0,5.6-1.6,9.8-4.9,12.8s-8,4.4-14.1,4.4h-31.8Zm14.6-34.7h11.9c2.5,0,4.4-.6,5.5-1.7a6.47,6.47,0,0,0,1.7-4.8,7.09,7.09,0,0,0-1.7-5c-1.1-1.1-3.2-1.7-6.3-1.7H-287Zm0,24.2h13.3c2.7,0,4.6-.5,6-1.6s2-3,2-5.8a6.55,6.55,0,0,0-1.9-5c-1.3-1.1-3.4-1.7-6.5-1.7H-287Z" transform="translate(428.6 -26.92)" style="fill:#fff"></path>
  <path d="M-243.4,146.12V87.62h43.1v11.2h-28.5v12.3h25.1v11.4h-25.1v12.3h28.5v11.3Z" transform="translate(428.6 -26.92)" style="fill:#fff"></path>
  <path d="M-197.4,146.07l21.3-29.4-20.7-29h17.4l12.1,17.4,12.2-17.4h17.4l-20.7,29,21.4,29.4h-17.6l-12.6-17.7-12.5,17.7Z" transform="translate(428.6 -26.92)" style="fill:#fff"></path>
  <path d="M-105.9,147c-10.2,0-18-2.6-23.4-7.9s-8-12.5-8-21.8c0-9.7,2.6-17.3,7.9-22.6s13.1-8,23.5-8a51.85,51.85,0,0,1,9.6.8,53.64,53.64,0,0,1,8.1,2.2v12.8a43.13,43.13,0,0,0-16.6-3.3c-6.1,0-10.5,1.5-13.3,4.4s-4.2,7.5-4.2,13.7c0,5.9,1.5,10.3,4.4,13.1s7.4,4.2,13.3,4.2a46.88,46.88,0,0,0,8.4-.8,37.76,37.76,0,0,0,8.1-2.4v12.9a53.26,53.26,0,0,1-8.1,2A64.23,64.23,0,0,1-105.9,147Z" transform="translate(428.6 -26.92)" style="fill:#fff"></path>
  <path d="M-54.4,147c-9.5,0-16.7-2.4-21.7-7.3s-7.4-12.4-7.4-22.6c0-10.8,2.5-18.6,7.4-23.3s12.2-7.1,21.7-7.1,16.7,2.4,21.7,7.1,7.4,12.5,7.4,23.3c0,10.2-2.5,17.8-7.4,22.6S-44.9,147-54.4,147Zm0-12.5q7.35,0,10.8-4.2c2.3-2.8,3.4-7.2,3.4-13.2,0-6.5-1.1-11.1-3.4-13.8s-5.9-4-10.8-4-8.6,1.3-10.8,4-3.4,7.3-3.4,13.8c0,6,1.1,10.4,3.4,13.2S-59.3,134.52-54.4,134.52Z" transform="translate(428.6 -26.92)" style="fill:#fff"></path>
  <path d="M-393.8,79.5a15.84,15.84,0,0,0-11.3-4.1h-23.4v28.8h22.7c4.9,0,8.9-1.4,11.9-4.1a13.85,13.85,0,0,0,4.5-10.3A14.53,14.53,0,0,0-393.8,79.5Z" transform="translate(428.6 -26.92)" style="fill:#c9f31d;fill-rule:evenodd"></path>
  <path d="M-390.5,150.5a14.44,14.44,0,0,0,4.6-11.2,15,15,0,0,0-4.7-11.3c-3.1-2.9-7.6-4.4-13.5-4.4h-24.5v31.1h25.2C-397.8,154.8-393.6,153.3-390.5,150.5Z" transform="translate(428.6 -26.92)" style="fill:#c9f31d;fill-rule:evenodd"></path>
  <path d="M-352.5,52.82c-14.7-14.5-34.1-24.3-55.9-25.9v30.6h4.2a41.49,41.49,0,0,1,18.6,4.2,34.42,34.42,0,0,1,13.4,11.4,27.84,27.84,0,0,1,4.9,15.8,27.16,27.16,0,0,1-4.5,15.7,29.56,29.56,0,0,1-11.7,10.2v1.4a31.12,31.12,0,0,1,15,10.7,27.92,27.92,0,0,1,5.5,17.6,29.9,29.9,0,0,1-5.3,17.6,34.28,34.28,0,0,1-14.3,11.8,47.34,47.34,0,0,1-19.9,4.1h-5.9v28.8a89.57,89.57,0,0,0,55.9-26.2,90,90,0,0,0,26.5-63.8A90.1,90.1,0,0,0-352.5,52.82Z" transform="translate(428.6 -26.92)" style="fill:#c9f31d;fill-rule:evenodd"></path>
</svg>
